<svg xmlns="http://www.w3.org/2000/svg" xml:space="preserve" width="2000" height="784" data-id="lg_Em7iaAB6Cxd7WTSseU" data-version="1" viewBox="0 0 2000 784"><g data-padding="20"><path fill="#00d1cd" d="M1000 10.235a381.765 381.765 0 1 0 0 763.53 381.766 381.766 0 1 0 0-763.53"/><path d="M1070.601 298.646v-55.52a8.95 8.95 0 0 0-8.885-8.918H852.388a8.95 8.95 0 0 0-8.886 8.918v367.642a8.95 8.95 0 0 0 8.918 8.885h209.36a8.95 8.95 0 0 0 8.854-8.918v-66.42c47.007-3.398 83.426-42.494 83.487-89.624v-66.42c0-47.402-36.917-86.302-83.487-89.625m-17.772 303.203H861.274v-34.2h191.524Zm-160.583-85.981V333.806a8.902 8.902 0 1 1 17.804 0v182.062a8.902 8.902 0 0 1-17.804 0m55.903 0V333.806a8.902 8.902 0 1 1 17.804 0v182.062a8.902 8.902 0 0 1-17.804 0m55.904 0V333.806a8.886 8.886 0 0 1 17.772 0v182.062a8.886 8.886 0 1 1-17.772 0m48.712-227.994H861.274v-35.863h191.524Zm17.771 64.47c17.069 3.037 30.078 17.963 30.078 35.895v66.42c0 17.899-13.01 32.858-30.046 35.895Zm65.685 102.314c-.078 37.3-28.54 68.406-65.685 71.79v-17.9c27.295-3.266 47.85-26.4 47.882-53.889v-66.42c-.032-27.488-20.587-50.624-47.882-53.89v-17.9c37.146 3.383 65.608 34.49 65.685 71.789Zm-74.155-225.372a8.79 8.79 0 0 1-8.758-8.79c0-9.908-12.306-39.699-34.68-39.699H895.507c-22.374 0-34.68 29.79-34.68 39.7a8.79 8.79 0 1 1-17.58 0c0-17.133 17.771-57.28 52.26-57.28h123.122c34.488 0 52.26 40.147 52.26 57.28a8.79 8.79 0 0 1-8.79 8.789"/><path fill="transparent" stroke="transparent" d="M608 0h784v784H608z"/></g></svg>