<svg xmlns="http://www.w3.org/2000/svg" xml:space="preserve" width="2000" height="798" data-id="lg_q0kHtKOpzr1zSHI6f5" data-version="1" viewBox="0 0 2000 798"><g data-padding="20"><g transform="translate(10 10)scale(.97494)"><rect width="797.676" height="797.676" x="216.442" y="-400.008" fill="none" rx="0" ry="0" transform="translate(400.17 400.17)"/><g transform="matrix(0 -2.73 4.5 0 400 400)"><linearGradient id="a" x1="0" x2="1" y1="0" y2="0" gradientUnits="objectBoundingBox"><stop offset="0%" stop-color="#9c7945"/><stop offset="49.8%" stop-color="#faf3aa"/><stop offset="100%" stop-color="#9c7945"/></linearGradient><path fill="url(#a)" stroke="#000" stroke-width="5" d="M.429 68.729a140.58 68 0 1 0 0 136 140.58 68 0 1 0 0-136Z" paint-order="stroke"/></g><g transform="matrix(0 -2.5 4.1 0 396.867 401.462)"><linearGradient id="b" x1="0" x2="1" y1="0" y2="0" gradientUnits="objectBoundingBox"><stop offset="0%" stop-color="#9c7945"/><stop offset="49.8%" stop-color="#faf3aa"/><stop offset="100%" stop-color="#9c7945"/></linearGradient><path fill="url(#b)" stroke="#000" stroke-width="3.5" d="M.468 82.068a140.58 68 0 1 0 0 136 140.58 68 0 1 0 0-136Z" paint-order="stroke"/></g><g transform="matrix(0 -2.35 3.77 0 396.31 401.74)"><linearGradient id="c" x1="0" x2="1" y1="0" y2="0" gradientUnits="objectBoundingBox"><stop offset="0%" stop-color="#9c7945"/><stop offset="49.8%" stop-color="#faf3aa"/><stop offset="100%" stop-color="#9c7945"/></linearGradient><path fill="url(#c)" stroke="#000" stroke-width="3.5" d="M.498 95.204a140.58 68 0 1 0 0 136 140.58 68 0 1 0 0-136Z" paint-order="stroke"/></g><rect width="278.647" height="142.99" x="300.162" y="-72.331" fill="none" rx="0" ry="0" transform="matrix(1.4 0 0 1.4 400.668 476.162)"/><path d="m888.595 463.561-.404 2.576q-6.084-.822-13.143-.822t-10.248.418l-.417-1.448q1.754-1.754 1.754-5.875 0-8.34-10.512-28.529-5.764 5.25-10.303 8.953.306 15.97 1.24 22.875 6.083.627 11.639 1.964l-.307 2.464q-7.63-.822-16.693-.822t-14.522.822l-.418-2.576q4.637-1.434 9.9-2.158 1.127-8.451 1.127-26.579v-6.084q0-16.694-1.336-26.58-5.263-.723-9.9-2.157l.418-2.576q5.458.821 13.854.821t16.025-.821l.306 2.464q-6.585 1.546-10.303 1.963-1.128 7.728-1.128 27.4v5.779q12.977-13.714 17-20.3 4.01-6.6 4.01-10.15t-1.74-5.304l.404-1.448q3.202.417 9.12.417 5.93 0 12-.821l.419 2.576q-4.637 1.434-9.9 2.158-.92 8.757-15.037 22.249l17.21 36.993q5.248.724 9.885 2.158m22.36-4.107q6.488 0 12.67-5.458l1.142 1.03q-5.876 8.034-15.051 11.849-9.064 0-13.603-5.667-4.525-5.666-4.525-15.76 0-10.095 5.667-18.797 5.666-8.715 15.148-11.291 6.892 0 9.676 2.729 2.785 2.729 2.785 9.634 0 3.913-1.03 6.697 2.158.822 5.054.822l-.112 2.172h-1.336q-11.542 0-27.61 3.397 0 13.7 5.36 17.097 2.256 1.546 5.765 1.546m5.667-25.549q0-6.794-1.281-9.481-1.295-2.674-5.416-2.674t-7.115 2.479q-2.77 5.764-2.98 13.909 8.452-2.785 16.792-4.233m33.29 3.189v8.646q0 11.124.724 16.485 2.882.626 6.488 1.963l-.21 1.949q-5.763-.822-10.915-.822t-10.4.627l-.32-1.963q3.09-1.337 6.084-2.06.933-7.004.933-16.18v-8.645q0-8.354-.836-16.694-2.673-.822-5.555-.822v-2.172q7.936-.515 14.633-2.06l.71.418q-1.336 7.936-1.336 21.33m1.85-35.657q-.71 1.336-2.52 3.397-1.795 2.06-3.034 2.896-1.24-.835-3.035-2.896-1.81-2.06-2.534-3.397.626-1.24 2.367-2.827 1.754-1.6 3.202-2.325 1.337.822 3.09 2.423 1.755 1.601 2.465 2.729m47.797 33.916q0-11.542-4.733-11.542-4.024 0-9.481 5.054-5.458 5.04-7.324 9.37 0 14.94 1.142 24.004 2.784.626 6.488 1.963l-.21 1.949q-5.763-.822-10.915-.822t-10.414.627l-.306-1.963q3.09-1.337 6.084-2.06.919-7.004.919-16.18v-8.646q0-9.481-.71-16.805-2.478-.821-5.57-.821v-2.158q6.6-.306 13.91-1.963l.724.417q-1.142 7.101-1.142 16.068l.418.111q3.508-4.845 9.12-9.941 5.61-5.11 10.15-6.655 6.278 0 8.13 5.666 1.24 4.024 1.24 9.9v2.06l-.516 28.946q2.994.724 6.085 2.06l-.307 1.964q-4.956-.627-8.395-.627-3.453 0-6.544.21v-1.449q1.643-8.033 2.06-26.467.098-1.03.098-2.27m36.896-34.306v-2.576l29.67-.933q12.475 0 16.387 3.091 3.815 2.882 3.815 8.758t-4.024 10.567q-4.01 4.678-9.788 7.045v.418q7.42 0 12.058 3.397 4.636 3.398 4.636 10.094 0 8.243-7.671 15.928-7.686 7.672-16.638 10.039-6.502 0-15.15-3.913-1.753 2.674-2.366 4.637l-2.172-.515q2.479-11.236 2.479-32.97t-1.142-31.424q-4.943-1.643-10.094-1.643m24.212 24.922h1.24q7.629 0 11.026-2.158 3.704-4.121 3.704-10.916 0-11.542-12.253-11.542-4.12 0-7.838 1.337-.92 9.69-.92 27.247 0 17.571.516 26.635 5.346 2.882 11.486 2.882 6.127 0 9.733-2.464 2.367-5.055 2.367-11.334 0-15.872-19.576-15.872Zm53.06 11.125v8.646q0 11.124.725 16.485 2.882.626 6.488 1.963l-.21 1.949q-5.763-.822-10.915-.822t-10.4.627l-.32-1.963q3.09-1.337 6.084-2.06.933-7.004.933-16.18v-8.645q0-8.354-.836-16.694-2.673-.822-5.555-.822v-2.172q7.936-.515 14.633-2.06l.71.418q-1.336 7.936-1.336 21.33m1.85-35.657q-.71 1.336-2.52 3.397-1.795 2.06-3.034 2.896-1.24-.835-3.035-2.896-1.81-2.06-2.534-3.397.626-1.24 2.367-2.827 1.754-1.6 3.202-2.325 1.337.822 3.09 2.423 1.755 1.601 2.465 2.729m32.664 58.017q6.488 0 12.67-5.458l1.14 1.03q-5.874 8.034-15.05 11.849-9.063 0-13.59-5.667-4.537-5.666-4.537-15.76 0-10.095 5.666-18.797 5.667-8.715 15.149-11.291 6.905 0 9.676 2.729 2.785 2.729 2.785 9.634 0 3.913-1.03 6.697 2.17.822 5.053.822l-.11 2.172h-1.338q-11.542 0-27.61 3.397 0 13.7 5.36 17.097 2.27 1.546 5.766 1.546m5.666-25.549q0-6.794-1.28-9.481-1.295-2.674-5.417-2.674-4.12 0-7.1 2.479-2.785 5.764-2.994 13.909 8.45-2.785 16.79-4.233m41.63 30.297-.208 1.949q-5.25-.822-11.43-.822-6.182 0-12.058.627l-.306-1.963q3.09-1.337 6.07-2.06.933-7.004.933-16.18v-8.646q0-9.481-.724-16.805-2.478-.821-5.57-.821v-2.158q6.6-.306 13.91-1.963l.724.417q-1.128 7.101-1.128 16.068l.404.111q1.448-4.121 5.319-9.537 3.856-5.402 7.156-7.06 4.636 0 9.064 1.658v1.434q-3.913 4.942-4.428 12.878h-2.27q0-4.01-.208-6.279-1.337-1.03-3.495-1.03-3.09 0-6.543 4.887-3.453 4.9-5 9.328 0 14.94 1.129 24.004 5.15.723 8.66 1.963m-306.292 82.34-.418 2.256q-6.084-.822-13.547-.822-7.476 0-10.665.418l-.417-1.448q1.239-.404 2.38-1.28 1.128-.878 1.128-1.908 0-7.519-13.7-50.276-1.852-5.667-3.202-8.66-5.765-.724-9.886-2.158l.418-2.576q5.458.821 14.772.821 9.329 0 16.958-.821l.307 2.464q-5.876 1.448-11.334 1.963.724 8.34 5.208 25.187 4.483 16.847 9.634 31.174 8.647-19.172 11.584-29.113 2.938-9.941 2.938-17.154 0-9.69-5.151-12.67l.417-1.447q3.189.417 10.248.417t13.129-.821l.418 2.576q-4.637 1.434-9.886 2.158.515 3.606.515 5.973 0 9.063-4.483 19.478-4.483 10.4-17.264 34.097 5.263.724 9.899 2.172m42.855 2.994q-8.966 0-14.73-6.029-5.78-6.029-5.78-15.816t5.933-18.49q5.917-8.702 15.607-11.18 9.58 0 14.522 5.569 4.957 5.555 4.957 15.343t-5.778 18.448q-5.765 8.66-14.731 12.155m-1.754-45.125q-4.33 0-7.101 2.479-3.411 6.488-3.411 14.939 0 8.437 3.815 14.884 3.815 6.432 10.205 6.432 4.33 0 7.212-2.576 3.3-6.279 3.3-15.287 0-9.022-3.453-14.94-3.453-5.93-10.567-5.93m54.815 42.45-.21 1.95q-5.248-.822-11.43-.822t-12.057.627l-.307-1.963q3.09-1.337 6.07-2.061.934-7.003.934-16.178v-8.647q0-9.481-.724-16.805-2.465-.821-5.556-.821v-2.158q6.586-.307 13.91-1.963l.71.417q-1.128 7.101-1.128 16.067l.417.112q1.434-4.121 5.305-9.537 3.857-5.403 7.156-7.06 4.637 0 9.064 1.657v1.435q-3.912 4.942-4.427 12.878h-2.27q0-4.01-.208-6.279-1.337-1.03-3.495-1.03-3.091 0-6.544 4.887-3.453 4.9-4.998 9.328 0 14.94 1.127 24.003 5.152.724 8.66 1.963m73.876-.32-.418 2.256q-6.07-.822-13.547-.822-7.463 0-10.665.418l-.404-1.448q1.226-.404 2.367-1.28 1.128-.878 1.128-1.908 0-7.519-13.7-50.276-1.852-5.667-3.188-8.66-5.78-.724-9.9-2.158l.418-2.576q5.458.821 14.786.821 9.315 0 16.944-.821l.307 2.464q-5.876 1.448-11.334 1.963.724 8.34 5.208 25.187 4.483 16.847 9.634 31.174 8.647-19.172 11.584-29.113 2.938-9.941 2.938-17.154 0-9.69-5.151-12.67l.417-1.447q3.189.417 10.248.417t13.143-.821l.404 2.576q-4.637 1.434-9.886 2.158.515 3.606.515 5.973 0 9.063-4.483 19.478-4.483 10.4-17.264 34.097 5.263.724 9.899 2.172m37.314-26.788v8.647q0 11.124.71 16.484 2.896.627 6.502 1.964l-.21 1.949q-5.777-.822-10.93-.822-5.15 0-10.4.627l-.305-1.963q3.09-1.337 6.07-2.06.933-7.004.933-16.18v-8.646q0-8.353-.822-16.693-2.687-.822-5.57-.822v-2.172q7.937-.515 14.634-2.06l.724.417q-1.336 7.936-1.336 21.33m1.85-35.656q-.723 1.336-2.533 3.397-1.796 2.06-3.035 2.896-1.24-.836-3.035-2.896-1.81-2.06-2.52-3.397.613-1.24 2.367-2.827 1.754-1.6 3.188-2.325 1.337.822 3.09 2.423t2.479 2.729m32.664 58.017q6.488 0 12.67-5.458l1.127 1.03q-5.875 8.034-15.036 11.849-9.064 0-13.603-5.667-4.54-5.667-4.54-15.76 0-10.095 5.668-18.797 5.666-8.716 15.148-11.291 6.906 0 9.69 2.729 2.785 2.728 2.785 9.634 0 3.913-1.03 6.697 2.158.822 5.04.822l-.098 2.172h-1.336q-11.543 0-27.624 3.397 0 13.7 5.36 17.097 2.27 1.546 5.779 1.546m5.666-25.549q0-6.794-1.294-9.482-1.281-2.673-5.403-2.673-4.12 0-7.114 2.479-2.785 5.764-2.994 13.909 8.452-2.785 16.805-4.233m41.602 30.296-.21 1.95q-5.247-.822-11.43-.822t-12.057.627l-.306-1.963q3.09-1.337 6.084-2.061.92-7.003.92-16.178v-8.647q0-9.481-.725-16.805-2.464-.821-5.555-.821v-2.158q6.586-.307 13.91-1.963l.723.417q-1.142 7.101-1.142 16.067l.418.112q1.434-4.121 5.305-9.537 3.856-5.403 7.156-7.06 4.637 0 9.064 1.657v1.435q-3.912 4.942-4.427 12.878h-2.27q0-4.01-.195-6.279-1.35-1.03-3.508-1.03-3.091 0-6.544 4.887-3.453 4.9-5 9.328 0 14.94 1.143 24.003 5.152.724 8.646 1.963"/><rect width="201.89" height="24.86" x="338.541" y="-13.266" fill="none" rx="0" ry="0" transform="matrix(1.4 0 0 1.4 400.738 593.018)"/><path d="M884.905 600.772h-5.458q-.431 0-.431-.306 0-.334.612-.432l.613-.097q.682-.084.933-.32.264-.223.39-.863l4.162-18.017q.154-.64 0-.863-.153-.209-.765-.334l-.613-.126q-.404-.083-.404-.334 0-.362.557-.362h5.458q.418 0 .418.307 0 .334-.613.431l-.612.084q-.67.097-.92.32-.236.237-.39.877l-4.162 18.017q-.126.64.014.849.139.223.752.334l.612.125q.39.098.39.334 0 .376-.543.376m6.085.014h-1.254q-.431 0-.334-.403l2.91-12.225q.153-.668.042-1.058-.098-.376-.557-.376-.557 0-1.211.808-.67.821-1.49 3.077-.125.403-.432.403-.46 0-.236-.557.668-2.102 1.42-3.3t1.517-1.684 1.407-.487q1.016 0 1.434.738.43.751.04 2.478l-.347 1.434q-.028.209.098.25.125.028.209-.153 1.17-2.673 2.116-3.717.947-1.03 2.172-1.03.835 0 1.253.431.404.446.404 1.212 0 .765-.362 1.225-.376.46-.947.46-.501 0-.71-.237-.21-.251-.32-.571t-.237-.571q-.111-.237-.39-.237-.46 0-1.197 1.156-.738 1.17-1.574 3.146-.85 1.977-1.63 4.428t-1.363 5.026q-.084.334-.432.334m10.916 6.614q-2.423 0-3.676-.891-1.267-.891-1.267-2.117 0-1.072.85-2.088.835-1.03 3.104-2.353.335-.181.39-.404.042-.237-.292-.445-.863-.557-1.03-1.295-.167-.724.39-1.03l2.325-1.351q.306-.153.32-.39.014-.223-.32-.404-.836-.5-1.24-1.406-.417-.891-.417-1.963 0-1.657.807-3.091.822-1.42 2.186-2.311 1.35-.877 3.035-.877.71 0 1.198.18.376.126.557-.25.515-1.128 1.336-1.796.808-.654 1.699-.654.64 0 .988.334.349.348.349.919 0 .584-.335.96-.334.362-.85.362-.403 0-.598-.153-.208-.153-.362-.306-.153-.153-.487-.153-.668 0-1.072.766-.125.278-.056.5.056.237.237.474.808 1.044.808 2.645 0 1.435-.627 2.73-.64 1.308-1.726 2.213t-2.493 1.211q-.557.126-.988.293-.446.167-1.128.599l-1.225.724q-.46.278-.237.696.209.417 1.184.78l2.645.974q1.713.613 2.367 1.504.654.89.654 2.088 0 1.462-.96 2.534-.961 1.072-2.562 1.657-1.587.585-3.481.585m1.183-15.594q0 1.406.418 2.033.418.64 1.184.64.974 0 1.824-.905.835-.905 1.364-2.339.515-1.42.515-2.952 0-1.531-.404-2.102-.39-.557-1.183-.557-.96 0-1.81.905-.863.905-1.378 2.311-.53 1.407-.53 2.966m-.85 14.828q1.199 0 2.229-.404 1.044-.39 1.712-1.128.655-.738.655-1.74 0-1.016-.501-1.67-.516-.669-1.978-1.212l-.584-.223q-.557-.209-1.1-.153-.557.07-1.044.306-1.657.92-2.242 1.727-.585.793-.585 1.74 0 1.128.836 1.95.82.807 2.603.807m13.046-5.569q-1.63 0-2.604-1.281-.974-1.267-.974-3.592 0-2.02.71-4.01.724-1.991 1.893-3.62 1.156-1.63 2.548-2.604t2.715-.974q1.434 0 2.075.682.626.696.626 1.852 0 1.378-.974 2.742-.96 1.365-2.687 2.437-1.74 1.072-4.066 1.587-.668.153-.696.766-.042.223-.042.446v.445q0 1.754.599 2.632.599.89 1.643.89 1.17 0 2.255-1.071 1.086-1.073 1.824-3.036.084-.264.362-.264.18 0 .237.153.042.153-.028.362-.975 2.701-2.367 4.08-1.392 1.378-3.05 1.378m-1.127-7.936q-.07.208.07.348t.348.083q1.907-.529 3.188-1.587 1.295-1.058 1.95-2.367.654-1.323.654-2.576 0-1.28-1.003-1.28-.89 0-1.935 1.03-1.044 1.044-1.935 2.729-.877 1.684-1.337 3.62m9.454 7.254 2.91-12.225q.153-.668.056-1.058-.112-.376-.571-.376-.557 0-1.212.808-.654.821-1.49 3.077-.11.403-.417.403-.46 0-.25-.557.668-2.102 1.42-3.3t1.517-1.684 1.406-.487q1.017 0 1.448.738.432.751.028 2.478l-.766 3.3q-.027.222.098.25.11.028.209-.153 1.197-2.478 2.297-3.94 1.1-1.448 2.088-2.06.975-.613 1.769-.613 1.14 0 1.657.919.515.919 0 2.812l-2.326 8.883q-.222.863-.027 1.28.18.432.668.432.612 0 1.21-.807.6-.808 1.24-3.077.098-.334.404-.334.237 0 .292.18.042.182-.027.432-.571 2.075-1.253 3.258-.67 1.184-1.365 1.643-.682.46-1.392.46-1.1 0-1.657-.92-.543-.918-.056-2.853l2.353-8.883q.348-1.198.112-1.657-.223-.46-.655-.46-.682 0-1.531.85-.864.835-1.755 2.297-.877 1.448-1.74 3.286t-1.545 3.829q-.697 1.99-1.114 3.898-.098.334-.432.334h-1.253q-.432 0-.348-.403m17.11.682q-1.126 0-1.74-.961-.612-.947-.612-2.785 0-1.74.488-3.508.487-1.754 1.35-3.356.85-1.587 1.935-2.812 1.086-1.225 2.298-1.95 1.21-.71 2.408-.71.822 0 1.435.418.43.279.529-.18l.974-4.038q.153-.557.014-.766-.14-.223-.557-.25l-.92-.084q-.46-.042-.402-.404.055-.278.43-.334 1.1-.181 1.964-.446.85-.264 1.379-.696.236-.18.46-.18.36 0 .264.459l-4.344 18.837q-.46 1.991.612 1.991.71 0 1.267-.946.57-.947 1.156-2.938.083-.334.39-.334.223 0 .278.18.07.182 0 .432-.585 2.869-1.6 4.108-1.031 1.253-2.41 1.253-1.197 0-1.698-1.017t-.112-2.756l.335-1.407q.07-.222-.07-.25t-.237.153q-1.462 2.882-2.784 4.08-1.31 1.197-2.48 1.197m.739-1.574q.738 0 1.615-.877.89-.89 1.769-2.297.877-1.42 1.6-3.035.739-1.63 1.184-3.133.446-1.49.446-2.534 0-1.866-1.323-1.866-.794 0-1.685.71-.877.725-1.698 1.95-.808 1.225-1.462 2.77-.67 1.546-1.058 3.217-.404 1.67-.404 3.258 0 1.072.292 1.462.293.375.724.375m15.204 1.574q-1.253 0-1.921-.989-.682-.974-.25-2.66l2.45-9.258q.403-1.434-.488-1.434-.64 0-1.267.919-.64.919-1.364 3.007-.125.362-.432.362-.153 0-.25-.139-.084-.14-.028-.348 1.782-5.541 4.44-5.541 1.045 0 1.407.849.376.863-.027 2.367l-2.576 9.76q-.28 1.044-.028 1.531.25.502.738.502 1.504 0 3.355-3.704 1.852-3.69 3.258-10.79.098-.334.432-.334h1.197q.418 0 .335.39l-2.45 12.405q-.224 1.016.04 1.518.265.515.85.515.877 0 1.796-.864.92-.863 1.67-2.241.753-1.379 1.212-3.021.46-1.657.46-3.258 0-1.281-.195-2.033t-.418-1.267q-.21-.53-.21-1.142 0-1.183 1.045-1.183.724 0 .947.807.21.808.21 2.437 0 2.325-.558 4.608-.57 2.284-1.531 4.135-.975 1.852-2.214 2.966-1.24 1.128-2.618 1.128-1.322 0-2.018-1.03-.71-1.03-.307-2.994.056-.209-.083-.237-.14-.028-.223.153-.863 1.713-1.935 2.91t-2.45 1.198m19.17 0q-1.892 0-2.992-1.587-1.1-1.574-1.1-4.275 0-1.99.64-3.829.64-1.838 1.699-3.272 1.058-1.434 2.353-2.283 1.309-.835 2.617-.835 1.908 0 3.008 1.559 1.1 1.56 1.1 4.288 0 1.991-.64 3.83-.641 1.837-1.7 3.271-1.058 1.448-2.352 2.283-1.31.85-2.632.85m-.056-.738q.975 0 1.922-.947.933-.96 1.698-2.52.766-1.56 1.226-3.48.46-1.908.46-3.844 0-3.828-1.992-3.828-.96 0-1.907.933-.947.946-1.7 2.506t-1.21 3.466q-.46 1.922-.46 3.857 0 3.857 1.963 3.857m19.479-18.087q-.585 0-.961-.417-.39-.418-.39-.988 0-.836.515-1.323.502-.487 1.142-.487.613 0 1.03.376.418.39.418 1.002 0 .85-.53 1.35-.514.488-1.224.488m-2.506 18.839q-1.017 0-1.448-.752-.418-.752-.028-2.465l2.27-9.718q.152-.668.04-1.058-.096-.376-.556-.376-.557 0-1.211.808-.67.821-1.49 3.077-.125.403-.432.403-.46 0-.236-.557.668-2.102 1.42-3.3t1.517-1.684 1.407-.487q1.072 0 1.503.738.432.752.028 2.478l-2.27 9.704q-.152.669-.041 1.058.11.376.57.376.544 0 1.212-.807.654-.808 1.476-3.077.125-.404.432-.404.459 0 .25.557-.654 2.088-1.434 3.286-.78 1.211-1.545 1.712-.766.488-1.434.488m8.646-.015q-1.003 0-2.13-.307-1.114-.306-1.7-.765-.208-.195-.18-.557l.668-4.01q.07-.404.376-.404.334 0 .334.432l.056 1.476q.07 1.74.85 2.548.779.821 1.907.821.988 0 1.684-.64.71-.627.71-1.852 0-.696-.208-1.295-.223-.599-.683-1.295-.46-.682-1.253-1.657-1.044-1.35-1.545-2.325-.501-.96-.501-2.005 0-1.921 1.21-3.09 1.198-1.156 3.078-1.156.82 0 1.6.236.78.251 1.31.738.264.21.18.557l-.862 4.094q-.084.403-.362.403-.28 0-.334-.431l-.098-1.462q-.125-1.838-.473-2.646-.348-.793-1.462-.793-.975 0-1.587.682-.613.668-.613 1.615 0 1.016.557 1.852.543.85 1.49 2.13 1.267 1.657 1.712 2.632.432.988.432 1.99 0 1.295-.557 2.298-.571 1.016-1.518 1.601t-2.088.585m8.813-.015q-1.044 0-1.63-.835-.584-.821-.18-2.659l2.548-11.096q.083-.46-.376-.46h-1.156q-.431 0-.431-.39 0-.223.153-.334.153-.125.362-.125h1.1q.71 0 .835-.64l.738-3.287q.084-.334.418-.334h1.267q.418 0 .334.404l-.766 3.397q-.097.46.362.46h1.755q.515 0 .515.39 0 .459-.64.459h-1.658q-.668 0-.821.654l-2.576 11.208q-.153.669.042 1.059.195.376.696.376.696 0 1.295-.794t1.267-3.035q.125-.39.404-.39.209 0 .278.18.056.182-.097.67-.585 2.088-1.267 3.188-.696 1.1-1.393 1.517-.71.418-1.378.418m14.382.014q-1.63 0-2.603-1.281-.99-1.267-.99-3.592 0-2.02.725-4.01.724-1.991 1.88-3.62 1.17-1.63 2.562-2.604t2.715-.974q1.434 0 2.06.682.627.696.627 1.852 0 1.378-.96 2.742-.961 1.365-2.702 2.437-1.726 1.072-4.051 1.587-.683.153-.71.766-.028.223-.028.446v.445q0 1.754.598 2.632.599.89 1.643.89 1.156 0 2.242-1.071 1.086-1.073 1.824-3.036.097-.264.376-.264.18 0 .222.153t-.013.362q-.975 2.701-2.367 4.08-1.407 1.378-3.05 1.378m-1.141-7.936q-.056.208.083.348.14.139.348.083 1.894-.529 3.189-1.587 1.28-1.058 1.949-2.367.654-1.323.654-2.576 0-1.28-1.016-1.28-.891 0-1.921 1.03-1.045 1.044-1.936 2.729-.89 1.684-1.35 3.62m11.389 7.936q-1.017 0-2.13-.307-1.128-.306-1.7-.765-.222-.195-.194-.557l.682-4.01q.056-.404.362-.404.334 0 .334.432l.07 1.476q.056 1.74.835 2.548.78.821 1.922.821.974 0 1.684-.64.697-.627.697-1.852 0-.696-.21-1.295-.208-.599-.668-1.295-.46-.682-1.266-1.657-1.03-1.35-1.546-2.325-.501-.96-.501-2.005 0-1.921 1.21-3.09 1.212-1.156 3.078-1.156.822 0 1.615.236.78.251 1.295.738.278.21.18.557l-.85 4.094q-.096.403-.374.403-.28 0-.334-.431l-.098-1.462q-.111-1.838-.473-2.646-.348-.793-1.448-.793-.99 0-1.601.682-.613.668-.613 1.615 0 1.016.557 1.852.557.85 1.504 2.13 1.253 1.657 1.698 2.632.446.988.446 1.99 0 1.295-.571 2.298-.57 1.016-1.518 1.601-.946.585-2.074.585m12.517-.682 2.91-12.225q.153-.668.055-1.058-.111-.376-.57-.376-.558 0-1.212.808-.654.821-1.49 3.077-.111.403-.417.403-.46 0-.251-.557.668-2.102 1.42-3.3t1.518-1.684 1.406-.487q1.016 0 1.448.738.432.751.028 2.478l-.766 3.3q-.028.222.097.25.112.028.21-.153 1.197-2.478 2.297-3.94 1.1-1.448 2.088-2.06.975-.613 1.768-.613 1.142 0 1.657.919t0 2.812l-2.325 8.883q-.223.863-.028 1.28.18.432.668.432.613 0 1.212-.807.598-.808 1.239-3.077.097-.334.404-.334.236 0 .292.18.042.182-.028.432-.57 2.075-1.253 3.258-.668 1.184-1.364 1.643-.683.46-1.393.46-1.1 0-1.656-.92-.543-.918-.056-2.853l2.353-8.883q.348-1.198.11-1.657-.222-.46-.653-.46-.682 0-1.532.85-.863.835-1.754 2.297-.877 1.448-1.74 3.286-.864 1.838-1.546 3.829-.696 1.99-1.114 3.898-.097.334-.431.334h-1.253q-.432 0-.348-.403m17.083.682q-1.1 0-1.712-.961-.613-.947-.613-2.785 0-1.74.487-3.508.488-1.754 1.35-3.356.85-1.587 1.936-2.812t2.297-1.95q1.212-.71 2.41-.71.584 0 1.099.223.53.237.863.724.18.279.362.279t.376-.279q.334-.487.543-.626.223-.14.404-.14.39 0 .306.432l-2.73 11.723q-.46 1.991.614 1.991.71 0 1.267-.946.57-.947 1.156-2.938.083-.334.39-.334.222 0 .278.18.07.182 0 .432-.585 2.869-1.56 4.108-.974 1.253-2.353 1.253-1.197 0-1.698-1.017-.515-1.016-.112-2.756l.39-1.685q.07-.209-.07-.25-.14-.029-.236.152-1.685 3.105-2.98 4.33-1.308 1.226-2.464 1.226m.766-1.574q.738 0 1.615-.877.89-.89 1.768-2.297.877-1.42 1.6-3.035.739-1.63 1.185-3.133.445-1.49.445-2.534 0-1.866-1.322-1.866-.794 0-1.685.71-.877.725-1.7 1.95-.806 1.225-1.461 2.77-.668 1.546-1.058 3.217-.404 1.67-.404 3.258 0 1.072.265 1.462.265.375.752.375m15.37 1.574q-1.684 0-2.784-1.406-1.1-1.393-1.1-3.565 0-2.046.655-4.024.654-1.977 1.782-3.592 1.114-1.6 2.478-2.548 1.365-.946 2.743-.946 1.462 0 2.478.793.153.126.18.195.029.084-.027.32l-.821 4.01q-.097.432-.404.432-.334 0-.404-.46l-.153-2.172q-.083-1.406-.403-1.837t-.933-.432q-.864 0-1.755.85-.89.835-1.63 2.255-.75 1.434-1.196 3.16t-.446 3.509q0 3.857 2.507 3.857 1.197 0 2.158-1.1.974-1.1 1.796-3.425.097-.307.43-.307.182 0 .21.126.028.139-.055.543-.307 1.684-1.1 2.965-.808 1.295-1.894 2.047t-2.311.752m16.248 0q-1.1 0-1.643-.92-.557-.918-.07-2.853l2.367-8.883q.335-1.198.098-1.657-.223-.46-.655-.46-.668 0-1.517.85-.836.835-1.74 2.297-.906 1.448-1.755 3.272-.835 1.824-1.545 3.829-.696 2.005-1.128 3.912-.097.334-.432.334h-1.28q-.432 0-.35-.403l4.485-19.2q.153-.557.014-.766-.14-.223-.571-.25l-.92-.084q-.46-.042-.403-.404.07-.278.432-.334 1.1-.181 1.963-.446.863-.264 1.378-.696.25-.18.46-.18.362 0 .278.459l-3.007 13.018q-.028.222.097.25t.209-.153q1.225-2.52 2.325-3.954 1.114-1.434 2.075-2.047.96-.612 1.754-.612 1.142 0 1.657.919.529.919 0 2.812l-2.325 8.883q-.21.863-.028 1.28.18.432.668.432.613 0 1.197-.807.585-.808 1.254-3.077.097-.334.403-.334.237 0 .293.18.04.182-.014.432-.585 2.075-1.267 3.258-.67 1.184-1.35 1.643-.697.46-1.407.46m15.079.014q-.126 0-.251-.098-.125-.083-.125-.39l-.334-19.422q-.028-.863-.21-1.198-.18-.334-.765-.46l-.404-.097q-.362-.083-.362-.362 0-.334.515-.334h5.054q.404 0 .404.307 0 .334-.612.39l-.613.07q-.53.027-.724.32-.195.292-.195.96l.153 14.494q0 .306.18.334t.307-.209l6.71-13.979q.85-1.74-.556-1.92l-.431-.07q-.46-.084-.46-.363 0-.334.53-.334h4.44q.363 0 .363.307 0 .278-.487.39l-.488.097q-.612.125-1.044.599-.432.473-.863 1.336l-9.148 19.144q-.125.307-.292.39-.167.098-.292.098m15.134-18.839q-.585 0-.975-.417-.376-.418-.376-.988 0-.836.502-1.323.5-.487 1.155-.487.613 0 1.017.376.417.39.417 1.002 0 .85-.515 1.35-.53.488-1.225.488m-2.52 18.839q-1.003 0-1.434-.752t-.028-2.465l2.255-9.718q.154-.668.056-1.058-.111-.376-.57-.376-.558 0-1.212.808-.654.821-1.49 3.077-.111.403-.417.403-.46 0-.251-.557.668-2.102 1.42-3.3t1.518-1.684 1.406-.487q1.072 0 1.504.738.43.752.027 2.478l-2.255 9.704q-.153.669-.056 1.058.112.376.57.376.558 0 1.212-.807.655-.808 1.49-3.077.112-.404.418-.404.46 0 .25.557-.64 2.088-1.42 3.286-.78 1.211-1.545 1.712-.766.488-1.448.488m9.05-.015q-1.615 0-2.604-1.281-.974-1.267-.974-3.592 0-2.02.724-4.01.71-1.991 1.88-3.62 1.155-1.63 2.56-2.604 1.393-.974 2.702-.974 1.448 0 2.075.682.626.696.626 1.852 0 1.378-.96 2.742-.975 1.365-2.702 2.437t-4.065 1.587q-.668.153-.696.766-.028.223-.028.446v.445q0 1.754.599 2.632.584.89 1.629.89 1.17 0 2.255-1.071 1.086-1.073 1.824-3.036.084-.264.362-.264.18 0 .237.153.04.153-.014.362-.99 2.701-2.381 4.08-1.392 1.378-3.05 1.378m-1.128-7.936q-.07.208.07.348.139.139.362.083 1.893-.529 3.174-1.587 1.295-1.058 1.95-2.367.654-1.323.654-2.576 0-1.28-1.003-1.28-.89 0-1.935 1.03-1.044 1.044-1.921 2.729-.891 1.684-1.351 3.62m11.042 7.657h-1.253q-.432 0-.334-.403l2.91-12.225q.153-.668.04-1.058-.11-.376-.57-.376-.542 0-1.211.808-.654.821-1.476 3.077-.125.403-.431.403-.46 0-.25-.557.68-2.102 1.433-3.3.738-1.197 1.504-1.684t1.42-.487q1.003 0 1.434.738.432.751.028 2.478l-.334 1.434q-.028.209.097.25.112.028.21-.153 1.169-2.673 2.115-3.717.947-1.03 2.172-1.03.822 0 1.24.431.417.446.417 1.212 0 .765-.376 1.225-.362.46-.946.46-.488 0-.697-.237-.222-.251-.32-.571-.111-.32-.236-.571-.126-.237-.404-.237-.46 0-1.184 1.156-.738 1.17-1.587 3.146-.835 1.977-1.615 4.428t-1.364 5.026q-.098.334-.432.334"/><rect width="67.716" height="24.86" x="405.628" y="-13.266" fill="none" rx="0" ry="0" transform="matrix(1.4 0 0 1.4 400.654 155.71)"/><path d="M973.79 163.757q-1.63 0-2.604-1.28-.99-1.268-.99-3.593 0-2.019.725-4.01t1.88-3.62q1.17-1.615 2.562-2.603 1.392-.975 2.715-.975 1.434 0 2.06.682.627.697.627 1.852 0 1.379-.96 2.743-.961 1.364-2.702 2.437-1.726 1.072-4.051 1.6-.683.154-.71.766-.028.21-.028.432v.446q0 1.754.598 2.645.599.877 1.643.877 1.156 0 2.242-1.072t1.824-3.021q.097-.279.376-.279.18 0 .222.153.042.154-.013.362-.975 2.701-2.367 4.08-1.407 1.378-3.05 1.378m-1.142-7.936q-.056.209.083.348.14.14.348.084 1.894-.53 3.189-1.587 1.28-1.045 1.949-2.367.654-1.323.654-2.576 0-1.281-1.016-1.281-.891 0-1.921 1.044-1.045 1.03-1.936 2.715-.89 1.685-1.35 3.62m11.39 7.936q-1.017 0-2.13-.306-1.128-.306-1.7-.766-.222-.18-.194-.557l.682-4.01q.056-.403.362-.403.334 0 .334.431l.07 1.476q.056 1.74.835 2.548.78.821 1.922.821.974 0 1.684-.626.697-.627.697-1.852 0-.71-.21-1.309-.208-.598-.668-1.28-.46-.697-1.267-1.671-1.03-1.35-1.545-2.311-.501-.975-.501-2.005 0-1.936 1.21-3.105 1.212-1.156 3.078-1.156.822 0 1.615.237.78.25 1.295.738.278.223.18.557l-.85 4.107q-.096.39-.374.39-.28 0-.334-.432l-.098-1.462q-.111-1.838-.473-2.631-.348-.808-1.448-.808-.99 0-1.601.683-.613.668-.613 1.615 0 1.016.557 1.851.557.85 1.504 2.13 1.253 1.657 1.698 2.646.446.975.446 1.99 0 1.282-.571 2.298-.57 1.003-1.518 1.587-.946.585-2.074.585m8.827-.014q-1.044 0-1.615-.835-.585-.822-.195-2.66l2.548-11.082q.097-.46-.362-.46h-1.17q-.431 0-.431-.403 0-.21.153-.334.153-.126.376-.126h1.1q.696 0 .82-.64l.739-3.286q.098-.334.432-.334h1.253q.43 0 .334.404l-.766 3.397q-.083.46.376.46h1.74q.516 0 .516.403 0 .46-.64.46h-1.658q-.668 0-.821.64l-2.576 11.208q-.153.668.056 1.058.195.376.682.376.71 0 1.309-.794.585-.793 1.267-3.035.125-.39.39-.39.222 0 .278.181.07.181-.083.669-.585 2.088-1.281 3.188-.683 1.1-1.393 1.518-.696.417-1.378.417m7.1.014q-.654 0-1.044-.417-.403-.418-.403-1.03 0-.794.557-1.282.543-.487 1.155-.487.613 0 1.03.404.418.417.418 1.03 0 .794-.557 1.295-.543.487-1.155.487m18.657-.292h-9.218q-.515 0-.515-.306 0-.307.488-.822l5.026-5.764q.974-1.128 2.158-2.492t2.242-2.882q1.044-1.518 1.74-3.063.682-1.546.682-3.05 0-1.322-.71-2.046-.724-.738-2.13-.738-1.323 0-2.562.905-1.24.905-2.033 3.077-.153.431-.487.431-.223 0-.306-.194-.098-.181 0-.46.64-1.838 1.587-2.924t2.047-1.56q1.113-.472 2.213-.472 2.117 0 3.356 1.127 1.239 1.142 1.239 3.035 0 1.63-.863 3.189-.85 1.56-2.186 3.063-1.337 1.504-2.77 2.91-1.45 1.406-2.577 2.7l-3.37 3.788q-.25.278-.166.501.07.209.473.209h3.425q1.198 0 1.95-.278.75-.279 1.322-.961.557-.696 1.142-2.005l.613-1.378q.153-.335.459-.335.46 0 .306.543l-1.657 5.667q-.083.334-.334.46-.236.125-.584.125m9.398.278q-2.242 0-3.217-2.046-.988-2.033-.988-5.403 0-1.74.417-3.8.418-2.047 1.184-4.052t1.824-3.676q1.058-1.67 2.339-2.673 1.28-.988 2.729-.988 2.228 0 3.216 2.032.975 2.047.975 5.416 0 1.713-.404 3.76-.418 2.06-1.184 4.065-.765 2.005-1.823 3.676-1.06 1.67-2.34 2.673-1.294 1.016-2.728 1.016m.153-.793q1.002 0 1.88-.891.876-.891 1.614-2.395.724-1.504 1.295-3.3.57-1.81.96-3.676.405-1.88.6-3.508.208-1.643.208-2.77 0-2.34-.668-3.426-.654-1.086-1.907-1.086-1.017 0-1.88.891-.877.891-1.615 2.367-.738 1.49-1.295 3.314-.57 1.824-.974 3.675-.39 1.852-.6 3.509-.194 1.657-.194 2.785 0 1.225.237 2.241.222 1.003.78 1.63.542.64 1.559.64m16.944.515h-9.217q-.515 0-.515-.306 0-.307.487-.822l5.026-5.764q.975-1.128 2.158-2.492 1.184-1.365 2.242-2.882 1.044-1.518 1.74-3.063.683-1.546.683-3.05 0-1.322-.71-2.046-.724-.738-2.13-.738-1.323 0-2.563.905t-2.032 3.077q-.153.431-.488.431-.222 0-.306-.194-.097-.181 0-.46.64-1.838 1.587-2.924t2.047-1.56q1.114-.472 2.214-.472 2.116 0 3.355 1.127 1.24 1.142 1.24 3.035 0 1.63-.864 3.189-.85 1.56-2.186 3.063t-2.77 2.91q-1.448 1.406-2.576 2.7l-3.37 3.788q-.25.278-.167.501.07.209.474.209h3.425q1.197 0 1.949-.278.752-.279 1.323-.961.557-.696 1.14-2.005l.614-1.378q.153-.335.46-.335.459 0 .306.543l-1.657 5.667q-.084.334-.334.46-.237.125-.585.125m13.102 0h-5.848q-.46 0-.46-.306 0-.335.46-.404l1.434-.181q.682-.084.919-.32.25-.223.376-.808l.919-3.954q.083-.46-.376-.46h-6.21q-.501 0-.501-.362 0-.195.14-.403.138-.21.36-.515l10.597-14.035q.208-.306.543-.306h.612q.25 0 .293.139.055.14-.14.376l-10.317 12.962q-.306.432.126.432h4.956q.404 0 .488-.376l1.42-6.057q.083-.306.417-.487l1.198-.654q.25-.153.39-.056.139.098.07.334l-1.56 6.864q-.098.432.306.432h1.35q.39 0 .307.362l-.25.988q-.084.362-.46.362h-1.35q-.418 0-.516.432l-.92 3.982q-.124.64.015.863.14.237.752.334l.557.084q.265.028.362.14.097.11.097.236 0 .362-.556.362"/><path fill-rule="evenodd" d="M1044.484 301.253a97 97 0 0 0 14.75 12.923c-.745-10.78 1.465-19.35 6.134-25.214 4.398-5.503 11.817-7.803 16.012-13.531-4.465.203-7.172.022-9.855-3.699-4.917 3.112-10.284-1.85-15.99-1.827 1.218-7.284.677-10.329 1.24-16.621 7.307 2.526 13.983 5.683 23.365 6.157.18-1.624-3.293-4.894-4.917-6.766-12.065 4.691-20.883-7.668-19.688-22.146 4.285-2.842 9.54-1.489 9.833 4.307 9.923.293 19.282 0 20.297-8.592 3.834-2.707 9.788-1.58 11.682 2.458 1.128.067 1.308-.767 2.48-.632 1.354-.248.227-3.022.61-4.285 5.277-.789 7.172 1.85 9.224 4.285 2.21-.834 2.097-4.06 3.067-6.134a38.3 38.3 0 0 1 10.442 6.766c2.729-.767 4.578-2.39 7.397-3.09v6.157c3.947-6.45 9.382-11.637 17.208-12.923 25.8-4.217 38.474 16.644 53.494 24.605 1.894-.564 1.083-3.834 2.48-4.916 2.369.112 4.51.022 6.135-.61.45 2.414.767 4.962 1.85 6.767-7.623 13.306-20.568.112-27.064-5.548.046 2.616 1.038 4.307.61 7.374-3.045-2.48-5.526-5.525-8.616-7.983-2.66 2.48-4.014 6.224-9.224 6.157 3.045-4.962 3.428-12.314-3.067-13.532.316 6.247-1.127 10.758-6.766 11.05 1.196-8.118-1.646-12.29-7.983-12.9-.925 1.737-1.083 4.24-1.24 6.766-.993-3.427-6.992-4.736-11.051-3.067-3.383 2.616-1.353 9.066 1.827 10.442 3.382-3.879 7.825-3.54 14.77-3.067-4.171.79-12.154 7.24-5.547 11.05 2.12-.518 1.06-4.262 4.308-3.675 1.466.992 2.075 2.864 2.48 4.916 16.058 4.06 43.392-6.675 49.165 7.984 3.293 8.322-1.691 16.96-6.766 20.906 4.353 6.585 8.142 10.712 8.007 18.448-.294 16.418-17.817 36.828-1.24 48.578 1.127 7.262-4.692 7.6-6.767 11.682-.27 6.044 2.64 8.863 4.308 12.923-1.443 1.42-5.503.225-7.984.608v-2.458c-.834 2.864-4.69 2.707-8.615 2.481v-2.48c.045 2.615-7.24 2.683-7.983.63-1.083 2.865-12.494 2.978-13.532 0-.79 1.309-7.825 3.947-8.006 0-5.03 4.286-8.254-.789-14.75 1.219 2.076-6.315 10.172-6.63 17.208-7.984-.135-5.728 2.075-11.276 1.24-15.38-1.85-8.954-15.335-12.472-12.9-25.823-17.77-.542-25.37 9.066-38.744 12.9-2.143 3.225-4.985 5.683-4.917 11.073 2.255 1.85 5.413 2.796 7.984 4.307-2.684 4.285-5.864 8.074-12.923 7.984-1.285 4.646 1.263 9.743-1.218 13.531-3.924.654-5.863-.676-7.983-1.826-.902.135-.226 1.804-1.24 1.826-8.616.249-12.607-1.06-19.69-1.217-1.76-3.428 1.805-6.789 3.7-8.615 3.969-.339 9.314.721 12.29-.61 4.06-4.916 4.353-14.568 1.24-19.688-3.111-5.074-10.26-4.826-13.53-8.592-4.51 2.097-8.164 6.021-14.14 4.916-2.098-4.465-5.842-7.284-12.292-7.374-1.082-3.428-.902-8.142-2.48-11.074-1.354.451-.226 3.45-.61 4.917h-4.285c2.21 4.352-1.533 6.743-1.24 11.05.18 1.263 1.669 1.218 1.85 2.481 2.548-.721 4.284-2.255 6.765-3.067 3.924 5.683-6.54 7.082-3.698 11.682-2.3 1.173-6.112.857-4.917 5.526h-4.916c-.316-5.638-2.91-8.999-8.006-9.833 0-2.684-.203-5.548.63-7.375l4.917 2.458c4.06-4.037-1.714-7.216.61-12.313-.271-1.353-3.023-.226-4.286-.61-.496-2.931.948-3.946.587-6.765h3.698c-1.623-5.525-1.578-12.855-1.217-17.207-6.54-1.85-10.487-15.359 0-15.99-.497-31.235-2.414-63.891 16.598-75.641q1.038-.113 1.218.609c-4.375 21.876-3.79 48.713-3.676 75.032 4.014 3.202 7.104 10.42 1.85 14.75m-14.186-52.277c-.88 14.208-.632 33.941 1.849 41.834-.722 1.308-1.263 2.82-1.85 4.285 2.143.948 5.616.542 8.616.632 1.872-2.165-1.692-2.864-1.218-5.548.925-1.308 2.66-1.827 2.458-4.285-.722-24.492.992-49.841 2.458-70.116-7.081 7.172-11.366 18.042-12.313 33.198m31.348 67.657c2.345 10.757 11.637 18.042 20.928 22.124.79-5.976-1.578-15.11 1.218-19.057 3.045 4.556-.631 12.81.632 19.666 5.254 4.871 7.938 23.635-1.24 26.454-5.098 1.579-11.322-2.39-13.532 3.676a24.8 24.8 0 0 0 19.688 0c1.083 1.398 4.33 3.834 6.766 1.85-1.286-3.316-.835-10.217.609-12.9 4.894-.677 9.517-1.557 11.05-5.549-2.525-1.353-5.57-2.21-7.352-4.285-.067-7.758 5.458-10.013 5.526-16.012 7.442-3.225 6.089-15.245 8.615-23.342 3.856 9.314-3.067 20.32-5.548 25.191 13.193-5.164 23.68-13.87 39.354-13.531 9.99.225 15.448 8.164 22.778 14.163 6.698 5.503 13.148 9.833 18.425 13.531v14.14c-4.713 2.662-13.396 4.624-14.75 8.593 2.865-2.57 7.962 1.94 10.443-2.458 1.872 4.172 6.54 1.691 9.246 0 1.24.992 1.173 3.315 3.676 3.067.36-2.819-3.72-6.495-2.48-12.29.699-3.158 7.352-4.173 6.765-9.225-.158-1.624-3.698-3.699-4.894-5.525-8.84-13.532 7.15-33.92 5.526-48.578-.722-6.473-6.383-10.96-8.615-15.381 3.834-2.797 7.758-5.999 8.615-10.442 4.984-26.025-32.34-10.848-49.82-16.012-.224-1.804-.337-3.721-1.825-4.285-.361 1.082.72 3.608-.632 3.676-3.27-.812-5.593-.79-6.766-3.067-1.804-3.563 2.188-6.901.632-8.615-2.797-.519-1.443 3.09-3.7 3.09-13.08-.677-6.764-21.56 5.549-14.14.09-1.737-.541-4.218 1.218-4.308 8.367.022 11.682 5.119 12.923 12.29 2.21-4.532 1.195-12.313 3.067-17.207-22.237-8.39-41.925 14.073-25.823 29.499-2.436 1.082-3.834 7.171-.61 8.615-.066-2.707 2.144-3.158 4.286-3.699 10.87 11.412 54.239-6.856 57.802 8.006a15.8 15.8 0 0 1-1.827 9.833c-8.276 12.494-48.352 2.165-67.657 6.157-1.714.767 2.977 3.518 1.24 4.285h-6.765c-.451 2.729 1.849 5.909 0 8.006-3.428-1.51-6.473-3.383-9.833-4.916a33.8 33.8 0 0 1-8.006 6.156c.112-3.202-1.263-4.893-1.827-7.397-3.315.61-2.706 5.075-5.548 6.157a11.3 11.3 0 0 0-1.85-5.525c-1.578 2.932-3.923 5.097-6.134 7.374-.383-1.668.767-4.87-.631-5.525-1.466 1.601-4.06 5.345-5.525 4.916-.79-2.3-.79-5.367-2.481-6.765-1.105.564-4.781 1.714-5.526.609.45-2.256 2.504-6.09 1.85-7.375-11.006 6.991-20.906 19.057-17.208 36.287m102.704-87.323c4.285 1.624 9.653 4.849 6.766 11.682 3.27-.226 2.39-4.578 3.699-6.766 3.022 1.895 4.51 5.345 7.983 6.766.36-1.646-1.804-3.834 0-4.917 9.089 2.481 15.945 19.553 26.454 9.224-.88-1.578-.068-4.87-2.48-4.916-3.023.226-1.963 4.578-3.677 6.134-14.343-6.765-22.642-19.575-38.745-24.582Zm-60.87 15.99c-4.78-.97-8.39-3.113-13.53-3.7-.384 1.467.766 4.466-.61 4.917-2.818-.676-6.201-.766-8.005-2.458 1.6-1.263 1.78-3.97 3.09-5.525 5.976-.857 10.306 3.202 14.14 2.458-.857-.632-3.654-2.436-2.481-3.067 4.646 1.127 7.668 3.834 14.163 3.067-.136-2.323-1.94-2.977-2.481-4.917 4.939-1.24 12.2-.112 13.532-4.916-1.015-3.473-4.511-4.51-7.375-6.157.18 3.654-2.368 4.578-4.917 5.526-1.804-1.67-2.413-4.533-6.134-4.285v3.676a52 52 0 0 0-7.375 1.24c-.225-4.33-5.457-5.074-8.615-3.09-1.33 9.337-12.29 9.021-22.755 9.247-.406-2.48-1.534-4.24-2.458-6.157-2.143-.496-2.368.902-4.285.609-.812 12.359 7.668 24.74 18.425 17.816 3 3.97 5.909 8.03 9.224 11.705-3.834-.158.609 4.33 0 6.766h-11.682v-4.94c-5.57 0-9.585-2.615-14.75-1.217.204 2.458-1.104 3.406-.63 6.157 5.164.676 10.035 4.623 14.14 1.218 1.465 1.624 2.458 3.698 4.916 4.307 3-1.353 8.029-2.052 9.247 1.24 1.24-1.42 2.187-3.134 3.676-4.307.54 1.714.766 3.744 1.849 4.917 1.804-.857 2.097-3.248 4.916-3.09.7 2.165 1.353 4.398 3.067 5.548 1.083-1.804 1.805-3.924 3.699-4.917a14.2 14.2 0 0 0 4.285 5.526 12.6 12.6 0 0 1 1.24-6.135c1.85 0 2.098 1.58 3.699 1.827.677-.564.18-2.255 1.85-1.827 3.224 1.692 5.006 4.827 10.44 4.285-.157-6.99-4.645-9.697-9.223-12.29-.068 1.578-1.127 2.164-1.85 3.066-1.15-1.285-1.668-3.225-4.284-3.067-1.85 6.63-6.18 10.983-9.856 3.699-.88.947-.811 2.864-1.826 3.676-2.233-1.737-7.352-6.202-4.94-8.593 2.369.7 1.309 4.85 4.308 4.917 1.263-.79.654-3.45 2.48-3.699 1.715 1.76 2.707 4.24 4.895 5.526-.451-1.872 1.69-1.173 1.24-3.067-.767-1.782-5.006-2.391-3.067-4.917 2.278.383 2.48 2.82 4.917 3.067.225-1.804.338-3.743 1.849-4.285 1.6.835 2.097 2.797 4.285 3.067.722-.924.767-2.525 1.85-3.067 2.999 3.158 6.54 5.751 9.832 8.593.45-3.09-1.037-4.285-.61-7.375-3.878-1.669-6.832-4.217-7.982-8.615-.384 1.488.766 4.465-.632 4.939-2.48-1.195-3.135-4.24-6.134-4.939-.993 1.263-.474 4.037-1.85 4.939-.902-.925-1.105-2.594-2.458-3.09-.067 1.579-1.127 2.165-1.85 3.09q-.292-1.24-1.85-1.24c-.066 1.127-.404 2.052-1.216 2.458-1.308-.947-2.3-2.21-3.7-3.067a6.77 6.77 0 0 1-4.284 3.067c-1.556-1.692-7.036-4.466-3.09-6.157-.202 2.458 2.842 1.669 3.068 3.699 2.255-.429 3-2.323 4.939-3.067.406 1.217 1.623 1.623 3.067 1.826 1.127-3.879 3.81-.113 5.525-4.285-.022 1.038.474 1.579 1.24 1.827.993-1.06.294-3.789 1.85-4.285 1.646 1.804 2.84 4.105 5.525 4.917.632-3.677.18-8.435 1.85-11.074 2.255 6.743 1.849 16.193 9.832 17.208-1.24-10.014 2.48-16.328-2.48-23.974 1.736-2.165 4.285-3.54 4.33-7.374-7.668.902-6.202 11.005-17.23 8.615.157 2.503 2.097 3.225 2.48 5.525-4.69-.135-10.148.406-11.704 0 .857.045 2.413 2.39 1.24 2.458m23.364-8.006c5.593 7.285-.18 15.426 2.48 24.583-1.126.157-3.09-.587-2.48 1.24.948 2.932 2.233 7.668-.61 9.246.904.903.994 2.684 1.219 4.285 3.744 2.977 8.3 1.466 13.532 1.24 18.087-.834 42.624 2.436 53.494-3.066 1.872-3.45 4.285-7.984 1.85-12.314-16.058-6.427-40.775 5.255-56.562-3.676-1.466.992-.7 4.217-1.85 5.525-3.923-2.48-6.472-8.84-3.066-13.531-3.902-3.609-5.684-12.179-4.917-18.448-.744 1.917-2.661 2.684-3.09 4.916m-42.42 6.157c1.42-.203 2.345.09 3.066.61v-3.068h-2.48q.112 1.646-.587 2.458m-10.464 17.208c-5.864.496-11.885-5.21-15.358-3.067 3.9 1.826 11.005 3.743 15.358 3.067m1.85 5.548c2.074-.384 5.705.789 6.765-.61-.902-.947-.992-2.706-1.24-4.307-1.85.384-5.278-.79-6.135.61 1.353.27.226 3.021.61 4.284m9.832 12.291c-.61-.812-1.015-1.85-1.827-2.458-.857 3.045-4.555 6.518-3.09 9.833.384-1.444 3.79.113 4.308-1.218.384 2.075.45 4.488 1.85 5.525q2.706-3.45 6.156-6.134c.36 1.466-.79 4.443.61 4.916 1.69-1.804 2.93-4.059 4.916-5.547.924 1.127.654 3.45 1.849 4.307 1.579-1.872 2.21-4.736 4.285-6.157 1.353 2.955 1.94 6.698 4.307 8.615 1.692-2.007 4.173-3.202 6.157-4.916 2.21 1.691 5.03 2.751 7.375 4.285.406-2.03-.79-5.683.609-6.766h4.939c0-2.03-2.03-2.075-1.85-4.285-5.547 2.03-7.6-1.94-11.682-3.067-1.24 2.639-2.255.992-4.307 0-.564 2.503-.61 5.525-1.85 7.375-1.871-2.03-3.09-4.691-5.525-6.157-1.51 1.759-2.187 4.375-4.307 5.548-.61-2.707-2.143-4.443-3.068-6.766-2.48.609-3.54 2.616-5.547 3.676.067-1.894-.271-3.383-1.218-4.285-1.105 1.128-1.67 2.842-3.09 3.676m-61.455 17.862c1.172 1.51 3.788 1.578 4.285 3.698 8.209 3.022 20.477-.496 16.62-7.983-.473-.902-3.09-3.045-4.916-1.85-.631 2.887 2.458 2.03 1.827 4.917-2.097 4.42-13.622 2.887-15.358-.609 1.285-1.173 3.247-1.669 3.067-4.285-3.406-3.428-6.653 1.218-5.525 6.134m6.134 8.006c2.706-.789 5.57 1.354 6.766 0-2.436-.631-3.158-2.977-6.766-2.458Zm12.313 15.381c5.075-.158 2.256 7.555 4.285 10.465 5.864 1.127 9.315 4.623 12.923 7.983 4.06-.88 7.51-2.323 9.833-4.916-3.518-2.616-5.413-6.901-7.984-10.465-3.247-9.45-14.005-14.681-19.688-19.665 2.774 3.743 2.75 11.23.63 16.598m-12.921-11.682c1.985 1.488 6.157.812 8.006 2.458 1.624-4.69-6.653-4.668-8.006-2.458m.609 5.525c3.338-.45 4.984.767 8.006.632-.632-3.09-4.556-2.842-8.006-3.09Zm1.24 2.481c-.135 1.15.677 1.353.61 2.458 1.87-.406 5.299.767 6.156-.631-1.917-1.15-4.15-3.18-6.766-1.85m-3.698 7.375c.09 1.76 4.217-.541 4.307 1.218.203 2.864 0 5.322-1.218 6.766 4.917 2.187-.022 13.193-4.916 9.224 1.894 4.465 7.442 5.277 7.375 11.682 2.345.496.789-2.91 1.217-4.285 1.286-.383 4.06.744 4.308-.631-1.218-.632-2.616-1.06-3.067-2.481 3.698-.158 5.48-2.3 7.374-4.285-2.345-.09-2.954 1.556-4.916 1.85-.992-2.301-3.834-2.73-4.308-5.549 1.58-5.052 2.436-6.653 1.218-12.29h4.285v-4.286a15.8 15.8 0 0 0-11.682 3.067m133.466 25.8c.992 4.669-.18 12.562-2.481 17.817-2.706 2.187-9.247.609-11.66 3.09 8.232 2.03 14.547-.722 23.365 1.826-.294-4.826-1.782-8.457-1.85-13.531 1.263-3.834 5.232-5.007 6.766-8.593-1.037-1.646-5.683.338-6.766-1.24a11.73 11.73 0 0 1 1.85-11.05c-6.992-5.12-10.893-13.307-22.147-14.164-2.368 12.224 11.05 17.005 12.923 25.845m9.832-1.849c2.075.383 5.729-.79 6.766.609a13.5 13.5 0 0 0-.61 5.548c-6.81-1.038-7.013 10.148-4.306 15.967 3.518-4.06 9.246-5.909 14.772-7.984v-12.29c-5.82-2.617-9.856-6.992-15.381-9.856-1.895 1.015-2.64 5.66-1.24 8.006M986.51 301.067a97 97 0 0 1-14.75 12.923c.744-10.78-1.466-19.35-6.134-25.214-4.398-5.503-11.818-7.803-16.012-13.531 4.465.203 7.17.022 9.855-3.699 4.917 3.112 10.284-1.85 15.99-1.827-1.218-7.284-.677-10.329-1.24-16.62-7.308 2.525-13.983 5.682-23.365 6.156-.18-1.624 3.293-4.894 4.916-6.766 12.066 4.691 20.884-7.668 19.689-22.146-4.285-2.842-9.54-1.489-9.833 4.307-9.923.293-19.282 0-20.297-8.592-3.834-2.707-9.788-1.579-11.683 2.458-1.127.068-1.308-.767-2.48-.632-1.353-.248-.226-3.022-.61-4.284-5.276-.79-7.17 1.849-9.223 4.284-2.21-.834-2.098-4.059-3.067-6.134a38.3 38.3 0 0 0-10.442 6.766c-2.73-.767-4.578-2.39-7.397-3.09v6.157c-3.947-6.45-9.382-11.637-17.208-12.922-25.8-4.218-38.474 16.643-53.494 24.604-1.895-.564-1.083-3.834-2.481-4.916-2.368.113-4.51.022-6.134-.61-.451 2.414-.767 4.962-1.85 6.767 7.623 13.306 20.568.112 27.063-5.548-.045 2.616-1.037 4.307-.61 7.374 3.046-2.48 5.527-5.525 8.616-7.983 2.662 2.48 4.015 6.224 9.224 6.157-3.044-4.962-3.428-12.314 3.068-13.532-.316 6.247 1.127 10.758 6.765 11.05-1.195-8.118 1.647-12.29 7.984-12.9.924 1.737 1.082 4.24 1.24 6.767.993-3.428 6.99-4.736 11.05-3.068 3.384 2.617 1.354 9.067-1.826 10.442-3.383-3.879-7.826-3.54-14.772-3.067 4.173.79 12.156 7.24 5.548 11.05-2.12-.518-1.06-4.262-4.307-3.675-1.466.992-2.075 2.864-2.481 4.916-16.057 4.06-43.391-6.675-49.164 7.984-3.293 8.322 1.69 16.96 6.765 20.906-4.352 6.585-8.141 10.712-8.006 18.448.293 16.418 17.817 36.828 1.24 48.578-1.127 7.262 4.69 7.6 6.766 11.682.27 6.044-2.638 8.863-4.307 12.923 1.443 1.42 5.503.225 7.983.609v-2.459c.835 2.865 4.69 2.707 8.615 2.481v-2.48c-.045 2.615 7.24 2.683 7.984.63 1.082 2.865 12.494 2.978 13.53 0 .79 1.309 7.827 3.948 8.008 0 5.029 4.286 8.254-.788 14.749 1.219-2.075-6.315-10.171-6.63-17.208-7.984.136-5.728-2.074-11.276-1.24-15.38 1.85-8.954 15.336-12.472 12.9-25.823 17.77-.542 25.372 9.066 38.745 12.9 2.143 3.225 4.984 5.683 4.917 11.073-2.256 1.85-5.413 2.797-7.984 4.308 2.684 4.284 5.864 8.073 12.923 7.983 1.285 4.646-1.263 9.743 1.217 13.532 3.925.654 5.864-.677 7.984-1.827.902.135.226 1.804 1.24 1.827 8.615.248 12.607-1.06 19.689-1.218 1.759-3.428-1.805-6.789-3.7-8.615-3.97-.339-9.313.721-12.29-.61-4.06-4.916-4.353-14.568-1.24-19.688 3.112-5.074 10.26-4.826 13.53-8.592 4.51 2.097 8.165 6.021 14.14 4.916 2.099-4.465 5.843-7.284 12.293-7.374 1.082-3.428.902-8.142 2.48-11.073 1.353.45.226 3.45.61 4.916h4.284c-2.21 4.353 1.534 6.743 1.24 11.05-.18 1.264-1.668 1.218-1.85 2.481-2.547-.721-4.284-2.255-6.764-3.067-3.925 5.684 6.54 7.082 3.698 11.682 2.3 1.173 6.112.857 4.917 5.526h4.916c.316-5.638 2.91-8.999 8.006-9.833 0-2.684.203-5.548-.631-7.375l-4.917 2.459c-4.06-4.037 1.714-7.217-.61-12.314.272-1.353 3.023-.226 4.286-.61.496-2.93-.947-3.946-.586-6.765h-3.7c1.625-5.525 1.58-12.855 1.219-17.207 6.54-1.85 10.487-15.359 0-15.99.496-31.235 2.413-63.891-16.598-75.641q-1.038-.113-1.218.609c4.375 21.876 3.789 48.713 3.676 75.032-4.015 3.202-7.104 10.42-1.85 14.75m14.186-52.277c.88 14.208.63 33.941-1.85 41.834.722 1.309 1.264 2.82 1.85 4.285-2.142.948-5.616.542-8.615.632-1.872-2.165 1.69-2.864 1.218-5.548-.925-1.308-2.661-1.827-2.458-4.285.72-24.492-.993-49.84-2.46-70.116 7.083 7.172 11.368 18.042 12.315 33.198m-31.348 67.657c-2.345 10.758-11.637 18.042-20.93 22.124-.788-5.976 1.58-15.11-1.216-19.057-3.045 4.556.63 12.81-.632 19.666-5.255 4.871-7.938 23.635 1.24 26.454 5.097 1.579 11.322-2.39 13.532 3.676a24.8 24.8 0 0 1-19.688 0c-1.083 1.398-4.33 3.834-6.766 1.85 1.285-3.316.834-10.217-.61-12.9-4.893-.677-9.516-1.557-11.05-5.549 2.526-1.353 5.57-2.21 7.352-4.285.068-7.758-5.457-10.013-5.525-16.012-7.442-3.225-6.09-15.245-8.615-23.342-3.857 9.315 3.067 20.32 5.548 25.192-13.193-5.165-23.68-13.87-39.354-13.532-9.991.226-15.45 8.164-22.778 14.163-6.698 5.503-13.148 9.833-18.426 13.531v14.14c4.714 2.662 13.397 4.624 14.75 8.593-2.864-2.57-7.961 1.94-10.442-2.458-1.872 4.172-6.54 1.692-9.247 0-1.24.992-1.172 3.315-3.676 3.067-.36-2.819 3.722-6.495 2.48-12.29-.698-3.158-7.351-4.173-6.765-9.225.158-1.624 3.699-3.698 4.894-5.525 8.84-13.532-7.15-33.92-5.525-48.578.722-6.473 6.382-10.96 8.615-15.381-3.834-2.796-7.758-5.999-8.615-10.442-4.984-26.025 32.34-10.847 49.818-16.012.226-1.804.339-3.721 1.827-4.285.36 1.083-.722 3.608.632 3.676 3.27-.812 5.593-.79 6.765-3.067 1.805-3.563-2.187-6.901-.631-8.615 2.796-.519 1.443 3.09 3.698 3.09 13.08-.677 6.766-21.56-5.547-14.14-.09-1.737.54-4.218-1.218-4.308-8.367.022-11.682 5.12-12.923 12.29-2.21-4.532-1.195-12.313-3.067-17.207 22.237-8.39 41.925 14.073 25.823 29.499 2.435 1.082 3.834 7.172.608 8.615.068-2.706-2.142-3.157-4.284-3.699-10.87 11.412-54.24-6.856-57.802 8.006a15.8 15.8 0 0 0 1.826 9.833c8.277 12.494 48.353 2.165 67.658 6.157 1.714.767-2.977 3.518-1.24 4.285h6.765c.45 2.729-1.85 5.909 0 8.006 3.428-1.51 6.473-3.383 9.833-4.916a33.8 33.8 0 0 0 8.006 6.157c-.113-3.203 1.263-4.894 1.827-7.398 3.315.61 2.706 5.075 5.548 6.157.12-1.972.76-3.877 1.849-5.525 1.579 2.932 3.924 5.097 6.134 7.375.384-1.67-.766-4.872.632-5.526 1.466 1.601 4.06 5.345 5.525 4.917.79-2.3.79-5.368 2.48-6.766 1.106.564 4.782 1.714 5.526.609-.45-2.255-2.503-6.09-1.85-7.375 11.007 6.991 20.907 19.057 17.208 36.287M866.62 229.125c-4.285 1.624-9.653 4.849-6.766 11.682-3.27-.225-2.39-4.578-3.7-6.766-3.021 1.895-4.51 5.345-7.982 6.766-.361-1.646 1.804-3.834 0-4.916-9.09 2.48-15.945 19.553-26.454 9.224.88-1.58.067-4.872 2.48-4.917 3.022.226 1.962 4.578 3.676 6.134 14.344-6.765 22.643-19.575 38.746-24.582Zm60.869 15.99c4.78-.97 8.39-3.113 13.53-3.699.385 1.466-.766 4.465.61 4.916 2.819-.676 6.202-.766 8.006-2.458-1.601-1.263-1.781-3.969-3.09-5.525-5.976-.857-10.306 3.202-14.14 2.458.857-.631 3.654-2.436 2.48-3.067-4.645 1.128-7.667 3.834-14.162 3.067.135-2.323 1.94-2.977 2.48-4.916-4.938-1.24-12.2-.113-13.53-4.917 1.014-3.473 4.51-4.51 7.374-6.157-.18 3.654 2.368 4.579 4.916 5.526 1.804-1.67 2.413-4.533 6.135-4.285v3.676c2.484.235 4.95.65 7.374 1.24.226-4.33 5.458-5.074 8.615-3.09 1.33 9.337 12.29 9.021 22.756 9.247.406-2.48 1.533-4.24 2.458-6.157 2.142-.496 2.368.902 4.285.61.812 12.358-7.668 24.74-18.425 17.816-3 3.969-5.91 8.028-9.224 11.704 3.834-.158-.61 4.33 0 6.766h11.682v-4.939c5.57 0 9.585-2.616 14.75-1.218-.204 2.458 1.104 3.406.63 6.157-5.164.677-10.035 4.623-14.14 1.218-1.466 1.624-2.458 3.698-4.916 4.307-3-1.353-8.03-2.052-9.247 1.24-1.24-1.42-2.187-3.134-3.676-4.307-.541 1.714-.767 3.744-1.85 4.917-1.803-.857-2.097-3.248-4.916-3.09-.7 2.165-1.353 4.398-3.067 5.548-1.082-1.804-1.804-3.924-3.698-4.917a14.2 14.2 0 0 1-4.285 5.526 12.6 12.6 0 0 0-1.24-6.134c-1.85 0-2.098 1.578-3.7 1.826-.676-.564-.18-2.255-1.85-1.826-3.224 1.691-5.005 4.826-10.44 4.285.157-6.992 4.645-9.698 9.224-12.292.067 1.58 1.127 2.165 1.849 3.068 1.15-1.286 1.669-3.225 4.285-3.068 1.85 6.63 6.18 10.983 9.855 3.699.88.947.812 2.864 1.827 3.676 2.233-1.736 7.352-6.202 4.939-8.592-2.368.699-1.308 4.848-4.308 4.916-1.262-.79-.654-3.45-2.48-3.699-1.714 1.76-2.707 4.24-4.894 5.526.45-1.872-1.692-1.173-1.24-3.067.766-1.782 5.006-2.39 3.067-4.917-2.278.384-2.481 2.82-4.917 3.067-.225-1.804-.338-3.743-1.85-4.285-1.6.835-2.097 2.797-4.284 3.068-.722-.925-.767-2.526-1.85-3.068-3 3.158-6.54 5.751-9.832 8.593-.451-3.09 1.037-4.285.609-7.375 3.879-1.669 6.833-4.217 7.983-8.615.384 1.489-.767 4.466.632 4.94 2.48-1.196 3.134-4.24 6.134-4.94.992 1.263.474 4.037 1.85 4.94.9-.925 1.104-2.594 2.457-3.09.068 1.578 1.128 2.165 1.85 3.09q.293-1.241 1.849-1.241c.068 1.127.406 2.052 1.218 2.458 1.308-.947 2.3-2.21 3.698-3.067a6.77 6.77 0 0 0 4.285 3.067c1.557-1.691 7.037-4.465 3.09-6.157.203 2.458-2.841 1.669-3.067 3.699-2.255-.429-3-2.323-4.94-3.067-.405 1.217-1.623 1.623-3.066 1.826-1.128-3.879-3.811-.112-5.525-4.285.022 1.038-.474 1.58-1.24 1.827-.993-1.06-.294-3.789-1.85-4.285-1.646 1.804-2.842 4.105-5.526 4.917-.631-3.676-.18-8.435-1.85-11.074-2.254 6.744-1.85 16.193-9.832 17.208 1.24-10.013-2.48-16.328 2.48-23.973-1.735-2.165-4.284-3.541-4.33-7.375 7.669.902 6.203 11.006 17.23 8.615-.157 2.503-2.096 3.225-2.48 5.525 4.69-.135 10.149.406 11.705 0-.857.045-2.413 2.39-1.24 2.459m-23.365-8.007c-5.593 7.285.18 15.426-2.48 24.583 1.127.158 3.09-.587 2.48 1.24-.947 2.932-2.232 7.668.61 9.247-.903.902-.993 2.683-1.22 4.285-3.742 2.976-8.298 1.465-13.53 1.24-18.087-.835-42.624 2.436-53.495-3.067-1.871-3.45-4.285-7.984-1.85-12.314 16.058-6.427 40.776 5.255 56.563-3.676 1.466.992.699 4.217 1.849 5.525 3.924-2.48 6.473-8.84 3.067-13.531 3.902-3.608 5.683-12.178 4.917-18.448.744 1.917 2.66 2.684 3.09 4.916m42.42 6.157c-1.42-.203-2.345.09-3.067.61v-3.068h2.48q-.112 1.646.587 2.458m10.465 17.208c5.863.496 11.885-5.21 15.358-3.067-3.901 1.826-11.006 3.743-15.358 3.067m-1.85 5.548c-2.074-.384-5.705.79-6.765-.61.902-.946.992-2.705 1.24-4.307 1.85.384 5.277-.789 6.134.61-1.353.27-.225 3.021-.608 4.284m-9.833 12.291c.609-.812 1.015-1.849 1.826-2.458.857 3.045 4.556 6.518 3.09 9.833-.383-1.443-3.79.113-4.307-1.218-.384 2.075-.451 4.488-1.85 5.525q-2.706-3.45-6.157-6.134c-.36 1.466.79 4.443-.608 4.917-1.692-1.805-2.932-4.06-4.917-5.548-.925 1.127-.654 3.45-1.85 4.307-1.578-1.872-2.21-4.736-4.284-6.157-1.353 2.955-1.94 6.698-4.308 8.615-1.691-2.007-4.172-3.202-6.157-4.916-2.21 1.691-5.03 2.751-7.374 4.285-.406-2.03.79-5.683-.61-6.766h-4.938c0-2.03 2.03-2.075 1.85-4.285 5.547 2.03 7.6-1.94 11.68-3.067 1.24 2.639 2.257.992 4.309 0 .564 2.503.609 5.525 1.85 7.375 1.87-2.03 3.089-4.691 5.525-6.157 1.51 1.76 2.187 4.375 4.307 5.548.609-2.706 2.143-4.443 3.067-6.766 2.48.61 3.54 2.616 5.548 3.676-.068-1.894.27-3.383 1.218-4.285 1.105 1.128 1.669 2.842 3.09 3.676m61.455 17.862c-1.173 1.51-3.79 1.579-4.285 3.698-8.21 3.022-20.477-.496-16.621-7.983.474-.902 3.09-3.045 4.916-1.85.632 2.887-2.458 2.03-1.826 4.917 2.097 4.42 13.62 2.887 15.358-.609-1.286-1.173-3.248-1.669-3.067-4.285 3.405-3.428 6.653 1.218 5.525 6.134m-6.134 8.007c-2.706-.79-5.57 1.353-6.766 0 2.436-.632 3.157-2.977 6.766-2.459Zm-12.314 15.38c-5.074-.158-2.255 7.555-4.285 10.465-5.863 1.127-9.314 4.623-12.922 7.983-4.06-.88-7.51-2.323-9.833-4.916 3.518-2.616 5.412-6.901 7.983-10.465 3.248-9.449 14.005-14.681 19.689-19.665-2.774 3.743-2.752 11.23-.632 16.598m12.923-11.682c-1.985 1.489-6.157.812-8.006 2.458-1.624-4.69 6.653-4.668 8.006-2.458m-.61 5.525c-3.337-.45-4.983.767-8.005.632.63-3.09 4.555-2.842 8.006-3.09Zm-1.24 2.481c.136 1.15-.676 1.353-.608 2.458-1.872-.405-5.3.767-6.157-.631 1.917-1.15 4.15-3.18 6.766-1.85m3.698 7.375c-.09 1.76-4.217-.54-4.307 1.218-.203 2.864 0 5.323 1.217 6.766-4.916 2.188.023 13.193 4.917 9.224-1.895 4.465-7.442 5.277-7.375 11.682-2.345.496-.79-2.91-1.218-4.285-1.285-.383-4.06.744-4.307-.631 1.218-.632 2.616-1.06 3.067-2.481-3.7-.158-5.48-2.3-7.375-4.285 2.346-.09 2.955 1.556 4.917 1.85.992-2.301 3.834-2.73 4.307-5.549-1.578-5.051-2.435-6.653-1.218-12.29h-4.285v-4.286a15.8 15.8 0 0 1 11.683 3.067m-133.466 25.8c-.992 4.669.18 12.562 2.48 17.817 2.707 2.187 9.247.609 11.66 3.09-8.231 2.03-14.546-.722-23.364 1.826.293-4.826 1.782-8.457 1.85-13.531-1.263-3.834-5.233-5.007-6.766-8.593 1.037-1.646 5.683.339 6.765-1.24a11.73 11.73 0 0 0-1.85-11.05c6.992-5.12 10.894-13.307 22.148-14.164 2.368 12.224-11.051 17.005-12.923 25.845m-9.833-1.849c-2.075.383-5.728-.79-6.766.609.587 1.787.794 3.676.61 5.548 6.81-1.037 7.013 10.149 4.307 15.967-3.518-4.06-9.247-5.909-14.772-7.984v-12.29c5.819-2.617 9.855-6.992 15.38-9.856 1.895 1.015 2.64 5.66 1.24 8.006" vector-effect="non-scaling-stroke"/><path d="M1008.813 701.799c.344.107 3.43.16 6.509.16 3.078 0 6.172-.053 6.509-.16.865-.276 2.106-1.478 2.129-3.285v-.796c.1-12.268.183-27.063.076-27.874q-.03-.23-.053-.544c-.1-1.225-.291-3.515-2.206-5.613-1.18-1.294-1.34-4.457-1.416-5.973-.046-.988-.4-4.824-.713-8.217-.23-2.45-.46-4.985-.49-5.498.23-.345.56-1.118.222-1.914-.1-.245-.214-.567-.314-.858l.414-.023-.023-.413q-.015-.07-.015-.345c-.054-.56-.26-1.555-.996-1.93-.513-.268-1.508-.306-2.512-.306h-1.225c-.995 0-1.99.038-2.504.306-.735.383-.942 1.37-1.003 1.968l-.008.337-.023.406h.406c-.092.291-.214.613-.314.858a2.07 2.07 0 0 0 .23 1.906c-.038.575-.268 3.079-.49 5.506-.314 3.393-.666 7.23-.72 8.217-.077 1.516-.23 4.671-1.417 5.973-1.914 2.098-2.098 4.38-2.197 5.613l-.054.536c-.153 1.118.069 28.41.069 28.678.03 1.807 1.263 3.01 2.136 3.285m3.155-61.276c.054-.521.23-1.15.59-1.333.42-.214 1.685-.214 2.16-.214h1.217c.475 0 1.738 0 2.16.214.298.16.52.659.58 1.294v.054l-.083.038c-.122.061-.168.061-.29 0-.1-.046-.238-.115-.483-.115a1 1 0 0 0-.483.115c-.122.061-.168.061-.29 0a1 1 0 0 0-.483-.115.96.96 0 0 0-.475.115c-.122.061-.168.061-.29 0a1 1 0 0 0-.483-.115.96.96 0 0 0-.475.115c-.123.061-.168.061-.291 0a1 1 0 0 0-.482-.115.96.96 0 0 0-.475.115c-.123.061-.176.061-.291 0a1 1 0 0 0-.49-.115.95.95 0 0 0-.467.115c-.123.061-.177.061-.3 0l-.076-.038Zm3.347 32.437a6.44 6.44 0 0 1 0 12.865 6.44 6.44 0 0 1 0-12.865"/></g><path fill="transparent" stroke="transparent" d="M601 0h798v798H601z"/></g></svg>