<svg xmlns="http://www.w3.org/2000/svg" xml:space="preserve" width="1500" height="1500" data-id="lg_Em7iaAB6Cxd7WTSseU" data-version="1" viewBox="0 0 1500 1500"><path fill="#00d1cd" stroke="transparent" d="M0 0h1500v1500H0z"/><g data-padding="20"><g transform="translate(-569.073 -575.11)scale(1.71898)"><path fill="#444" stroke="#fff" stroke-width="1.96" d="M486.979 937.562h160.416m239.924-.18h160.416"/><rect width="438.316" height="85.88" x="148.199" y="328.022" fill="none" rx="0" ry="0" transform="translate(401.57 504.11)"/><path fill="#fff" d="M553.067 898.942v-53.2h8.36v22.42l10.64-22.42h8.36l-9.95 19.53 10.11 33.67h-8.74l-7.07-23.71-3.35 6.76v16.95Zm31.47 0v-53.2h22.8v7.6h-14.44v14.06h11.47v7.6h-11.47v16.34h14.44v7.6Zm27.59 0v-53.2h8.36v53.2Zm14.59 0v-53.2h10.49l8.13 31.85h.15v-31.85h7.45v53.2h-8.59l-10.03-38.83h-.15v38.83Zm44.61 0v-53.2h12.62q6.46 0 9.42 3 2.96 3.01 2.96 9.24v2.13q0 4.1-1.33 6.68-1.33 2.59-4.06 3.73v.15q6.23 2.13 6.23 11.1v4.56q0 6.15-3.23 9.38t-9.46 3.23Zm8.36-31.54h3.27q2.51 0 3.76-1.29t1.25-4.33v-2.97q0-2.88-1.02-4.18-1.03-1.29-3.23-1.29h-4.03Zm0 23.94h4.79q2.2 0 3.27-1.18 1.06-1.17 1.06-4.06v-4.64q0-3.65-1.25-5.05-1.26-1.41-4.15-1.41h-3.72Zm22.34 7.6v-53.2h8.36v53.2Zm14.6 0v-53.2h22.8v7.6h-14.44v14.06h11.47v7.6h-11.47v16.34h14.44v7.6Zm27.57 0v-53.2h12.39q6.46 0 9.43 3 2.96 3.01 2.96 9.24v3.27q0 8.28-5.47 10.48v.16q3.04.91 4.29 3.72 1.26 2.81 1.26 7.52v9.35q0 2.28.15 3.69.15 1.4.76 2.77h-8.51q-.46-1.29-.61-2.43t-.15-4.1v-9.73q0-3.65-1.18-5.09-1.18-1.45-4.07-1.45h-2.89v22.8Zm8.36-30.4h3.04q2.51 0 3.77-1.29 1.25-1.29 1.25-4.33v-4.11q0-2.88-1.03-4.18-1.02-1.29-3.23-1.29h-3.8Zm40.29 30.4-8.05-53.2h8.43l5.48 41.27h.15l5.47-41.27h7.68l-8.06 53.2Zm35.27.76q-6.16 0-9.43-3.49-3.26-3.5-3.26-9.88v-27.97q0-6.39 3.26-9.88 3.27-3.5 9.43-3.5 6.15 0 9.42 3.5 3.27 3.49 3.27 9.88v27.97q0 6.38-3.27 9.88-3.27 3.49-9.42 3.49m0-7.6q4.33 0 4.33-5.24v-29.03q0-5.25-4.33-5.25t-4.33 5.25v29.03q0 5.24 4.33 5.24m18.31 6.84v-53.2h12.39q6.46 0 9.43 3 2.96 3.01 2.96 9.24v3.27q0 8.28-5.47 10.48v.16q3.04.91 4.29 3.72 1.26 2.81 1.26 7.52v9.35q0 2.28.15 3.69.15 1.4.76 2.77h-8.51q-.46-1.29-.61-2.43t-.15-4.1v-9.73q0-3.65-1.18-5.09-1.18-1.45-4.07-1.45h-2.89v22.8Zm8.36-30.4h3.04q2.51 0 3.77-1.29 1.25-1.29 1.25-4.33v-4.11q0-2.88-1.03-4.18-1.02-1.29-3.23-1.29h-3.8Zm40.28 30.4-8.05-53.2h8.43l5.48 41.27h.15l5.47-41.27h7.68l-8.06 53.2Zm23.18 0v-53.2h8.36v53.2Zm14.6 0v-53.2h22.8v7.6h-14.44v14.06h11.47v7.6h-11.47v16.34h14.44v7.6Zm27.57 0v-53.2h12.39q6.46 0 9.43 3 2.96 3.01 2.96 9.24v3.27q0 8.28-5.47 10.48v.16q3.04.91 4.29 3.72 1.26 2.81 1.26 7.52v9.35q0 2.28.15 3.69.15 1.4.76 2.77h-8.51q-.46-1.29-.61-2.43t-.15-4.1v-9.73q0-3.65-1.18-5.09-1.18-1.45-4.07-1.45h-2.89v22.8Zm8.36-30.4h3.04q2.51 0 3.77-1.29 1.25-1.29 1.25-4.33v-4.11q0-2.88-1.03-4.18-1.02-1.29-3.23-1.29h-3.8Z"/><rect width="217.958" height="38.42" x="258.378" y="351.752" fill="none" rx="0" ry="0" transform="translate(401.08 566.4)"/><path fill="#fff" d="M676.767 948.052h-2.66l-8.96-11.9 8.96-11.91h2.66l-9.15 11.91Zm-12.14 0h-2.14v-23.81h2.14Zm26.22-4.68q0 1.03-.39 1.95-.39.91-1.07 1.59t-1.6 1.07q-.91.39-1.94.39h-1.36q-1.03 0-1.94-.39-.92-.39-1.6-1.07t-1.07-1.59q-.39-.92-.39-1.95v-7.67q0-1.03.39-1.94t1.07-1.59 1.6-1.07q.91-.39 1.94-.39h1.36q1.03 0 1.94.39.92.39 1.6 1.07t1.07 1.59.39 1.94v4h-9.32v3.79q0 .61.24 1.15.23.54.63.94t.93.63q.54.24 1.16.24h1.36q.61 0 1.15-.24.54-.23.94-.63t.63-.94.23-1.15v-1.13l2.05.33Zm-2.05-5.26v-2.52q0-.62-.23-1.16t-.63-.93q-.4-.4-.94-.63-.54-.24-1.15-.24h-1.36q-.62 0-1.16.24-.53.23-.93.63-.4.39-.63.93-.24.54-.24 1.16v2.52Zm9.02-11.15h-2.37v-2.72h2.37Zm-.17 21.09h-2.04v-17h2.04Zm16.11 0h-2.04v-12.45q0-.62-.23-1.16t-.63-.93q-.4-.4-.94-.63-.54-.24-1.15-.24h-1.36q-.62 0-1.16.24-.54.23-.94.63-.39.39-.63.93-.23.54-.23 1.16v12.45h-2.04v-17h.68l1.11 1.73q.7-.95 1.75-1.51 1.06-.55 2.3-.55h.52q1.03 0 1.94.39t1.59 1.07 1.07 1.59.39 1.94Zm26-5.84q0 1.21-.46 2.27t-1.25 1.86q-.8.8-1.87 1.25-1.07.46-2.29.46h-7.53v-23.81h7.53q1.22 0 2.29.46t1.87 1.25q.79.8 1.25 1.87t.46 2.28v.24q0 .84-.23 1.61-.22.78-.64 1.44-.41.66-.98 1.2-.56.54-1.26.91.7.36 1.26.9.57.54.98 1.21.42.68.64 1.45.23.77.23 1.62Zm-2.15 0v-1.88q0-.8-.3-1.49-.29-.69-.82-1.2-.52-.51-1.21-.81t-1.48-.3h-5.3v9.48h5.3q.79 0 1.48-.3t1.21-.82q.53-.51.82-1.2.3-.69.3-1.48m0-11.54v-.57q0-.79-.3-1.48-.29-.69-.82-1.22-.52-.52-1.21-.82t-1.48-.3h-5.3v8.21h5.3q.79 0 1.48-.3t1.21-.83q.53-.52.82-1.21.3-.69.3-1.48m8.44-3.71h-2.38v-2.72h2.38Zm-.17 21.09h-2.04v-17h2.04Zm16.11-4.68q0 1.03-.39 1.95-.39.91-1.07 1.59t-1.59 1.07q-.92.39-1.95.39h-1.36q-1.03 0-1.94-.39t-1.59-1.07-1.07-1.59q-.39-.92-.39-1.95v-7.67q0-1.03.39-1.94t1.07-1.59 1.59-1.07 1.94-.39h1.36q1.03 0 1.95.39.91.39 1.59 1.07t1.07 1.59.39 1.94v4h-9.31v3.79q0 .61.23 1.15t.63.94.94.63q.54.24 1.15.24h1.36q.62 0 1.16-.24.54-.23.94-.63.39-.4.63-.94.23-.54.23-1.15v-1.13l2.04.33Zm-2.04-5.26v-2.52q0-.62-.23-1.16-.24-.54-.63-.93-.4-.4-.94-.63-.54-.24-1.16-.24h-1.36q-.61 0-1.15.24-.54.23-.94.63-.4.39-.63.93t-.23 1.16v2.52Zm13.16-5.12h-2.04q-.61 0-1.15.23-.54.24-.94.63-.4.4-.63.94t-.23 1.16v12.1h-2.04v-17h.68l1.11 1.73q.7-.95 1.75-1.51 1.05-.55 2.3-.55h1.19Zm21.91-1.95-6.02 17h-1.02l-6.02-17h2.04l4.43 12.88.07.88.06-.88 4.42-12.88Zm13.72 12.33q0 1.03-.39 1.95-.39.91-1.07 1.59t-1.59 1.07q-.92.39-1.95.39h-1.36q-1.03 0-1.94-.39t-1.59-1.07-1.07-1.59q-.39-.92-.39-1.95v-7.67q0-1.03.39-1.94t1.07-1.59 1.59-1.07 1.94-.39h1.36q1.03 0 1.95.39.91.39 1.59 1.07t1.07 1.59.39 1.94Zm-2.04.12v-7.9q0-.62-.23-1.16-.24-.54-.63-.93-.4-.4-.94-.63-.54-.24-1.16-.24h-1.36q-.61 0-1.15.24-.54.23-.94.63-.4.39-.63.93t-.23 1.16v7.9q0 .61.23 1.15t.63.94.94.63q.54.24 1.15.24h1.36q.62 0 1.16-.24.54-.23.94-.63.39-.4.63-.94.23-.54.23-1.15m13.16-10.5h-2.04q-.61 0-1.15.23-.54.24-.94.63-.4.4-.63.94t-.23 1.16v12.1h-2.04v-17h.68l1.11 1.73q.7-.95 1.75-1.51 1.05-.55 2.3-.55h1.19Zm11.07-8.75 5.26 18.58.07.88.07-.88 5.28-18.58h2.2l-7 23.81h-1.13l-6.97-23.81Zm18.15 2.72h-2.38v-2.72h2.38Zm-.17 21.09h-2.04v-17h2.04Zm16.11-4.68q0 1.03-.39 1.95-.39.91-1.07 1.59t-1.59 1.07q-.92.39-1.95.39h-1.36q-1.03 0-1.94-.39t-1.59-1.07-1.07-1.59q-.39-.92-.39-1.95v-7.67q0-1.03.39-1.94t1.07-1.59 1.59-1.07 1.94-.39h1.36q1.03 0 1.95.39.91.39 1.59 1.07t1.07 1.59.39 1.94v4h-9.31v3.79q0 .61.23 1.15t.63.94.94.63q.54.24 1.15.24h1.36q.62 0 1.16-.24.54-.23.94-.63.39-.4.63-.94.23-.54.23-1.15v-1.13l2.04.33Zm-2.04-5.26v-2.52q0-.62-.23-1.16-.24-.54-.63-.93-.4-.4-.94-.63-.54-.24-1.16-.24h-1.36q-.61 0-1.15.24-.54.23-.94.63-.4.39-.63.93t-.23 1.16v2.52Zm13.17-5.12h-2.04q-.61 0-1.15.23-.54.24-.94.63-.4.4-.63.94t-.23 1.16v12.1h-2.05v-17h.69l1.11 1.73q.69-.95 1.75-1.51 1.05-.55 2.3-.55h1.19Zm-107.74-347.827a113.587 113.587 0 1 0 0 227.174 113.587 113.587 0 1 0 0-227.174"/><path fill="#002a29" d="M789.177 671.304v-16.328a2.63 2.63 0 0 0-2.613-2.623h-61.56a2.63 2.63 0 0 0-2.614 2.623v108.12a2.63 2.63 0 0 0 2.623 2.612h61.57a2.63 2.63 0 0 0 2.603-2.623v-19.533c13.825-1 24.535-12.497 24.553-26.357v-19.534c0-13.94-10.857-25.38-24.553-26.357m-5.226 89.168h-56.344v-10.058h56.325Zm-47.226-25.286v-53.542a2.618 2.618 0 0 1 5.236 0v53.542a2.618 2.618 0 0 1-5.236 0m16.44 0v-53.542a2.618 2.618 0 0 1 5.237 0v53.542a2.618 2.618 0 1 1-5.236 0m16.44 0v-53.542a2.613 2.613 0 1 1 5.227 0v53.542a2.613 2.613 0 0 1-5.226 0m14.325-67.05h-56.324V657.59h56.325Zm5.227 18.96c5.02.893 8.845 5.283 8.845 10.556v19.533c0 5.264-3.826 9.663-8.836 10.556Zm19.317 30.09c-.023 10.968-8.393 20.117-19.317 21.112v-5.264c8.026-.96 14.07-7.765 14.08-15.849v-19.533c-.01-8.084-6.054-14.888-14.08-15.848v-5.264c10.924.995 19.294 10.143 19.317 21.112Zm-21.808-66.28a2.585 2.585 0 0 1-2.576-2.585c0-2.914-3.62-11.675-10.2-11.675h-36.217c-6.58 0-10.2 8.76-10.2 11.675a2.585 2.585 0 0 1-5.17 0c0-5.039 5.227-16.845 15.37-16.845h36.209c10.142 0 15.369 11.806 15.369 16.845a2.585 2.585 0 0 1-2.585 2.585"/></g><path fill="transparent" stroke="transparent" stroke-width="1.783" d="M250 419.34h1000v661.32H250z"/></g></svg>